<svg version="1.2" xmlns="http://www.w3.org/2000/svg" viewBox="0 0 512 512" width="512" height="512">
	<title>carrito-svg</title>
	<style>
		.s0 { fill: #ffffff } 
	</style>
	<g id="Layer">
		<path id="Layer" fill-rule="evenodd" class="s0" d="m50 42.3c13.5 0.4 16.5 0.7 23.4 3.1 18.6 6.3 32.7 20.2 38.5 38 1.5 4.3 7.1 40.4 7.1 45.3 0 0.1 72.6 0.4 161.3 0.5l161.2 0.3 6.7 3.3c12 5.9 19.9 17.1 21.4 30.5 0.4 3.9-2.6 25.7-12 86.8-6.9 44.8-13.2 83.8-14.2 86.5-6.7 20.1-24.1 35.5-44.9 39.9-10.5 2.2-226.6 2.2-237 0-19.7-4.1-37.7-19.8-44.1-38.4-2.4-7.1-27.8-170.4-33.4-214.6-1.6-13.2-3.6-26.3-4.5-29-1.8-6.2-6.2-11.7-12.3-15.2-4.4-2.6-5.7-2.8-19.2-3.4-17.3-0.7-20.7-1.9-24.7-8.6-4.9-8.5-1.7-19.3 7.1-23.5 3.6-1.7 5.9-1.8 19.6-1.5zm383 119.7h-154.5c-85 0-154.5 0.4-154.5 0.9 0 1.2 22.8 150.3 24.1 157.5 0.6 3.3 1.9 7.6 2.9 9.6 2.6 5 8.7 10.4 14.6 12.6 4.7 1.8 9.4 1.9 115.4 1.9h110.5l4.7-2.2c5.9-2.7 12.2-9.2 14.2-14.6 0.9-2.3 6.9-39.5 13.5-82.7 10.8-71 11.8-78.7 10.5-80.8z"/>
		<path id="Layer" class="s0" d="m169.9 426c11.3 0 20 6.8 22 17.3 2.7 14.6-6.9 26.1-21.9 26.1-13.2 0-22.1-8.5-22.1-21.3-0.1-9.3 3.8-15.8 12.1-20.2 2.3-1.2 5.7-1.8 9.9-1.9z"/>
		<path id="Layer" class="s0" d="m401.1 428.3c5.2 2.8 10.4 9.9 11.4 15.7 3.2 19.1-18.8 32.8-35.2 21.7-13.9-9.4-12.1-30.7 3.2-37.8 5.8-2.7 15-2.5 20.6 0.4z"/>
	</g>
</svg>