<?xml version="1.0" standalone="no"?>
<!DOCTYPE svg PUBLIC "-//W3C//DTD SVG 20010904//EN"
 "http://www.w3.org/TR/2001/REC-SVG-20010904/DTD/svg10.dtd">
<svg version="1.0" xmlns="http://www.w3.org/2000/svg"
 width="512.000000pt" height="512.000000pt" viewBox="0 0 512.000000 512.000000"
 preserveAspectRatio="xMidYMid meet">
<metadata>
Created by potrace 1.16, written by Peter Selinger 2001-2019
</metadata>
<g transform="translate(0.000000,512.000000) scale(0.100000,-0.100000)"
fill="#000000" stroke="none">
<path d="M304 4682 c-88 -42 -120 -150 -71 -235 40 -67 74 -79 247 -86 135 -6
148 -8 192 -34 61 -35 105 -90 123 -152 9 -27 29 -158 45 -290 56 -442 310
-2075 334 -2146 64 -186 244 -343 441 -384 104 -22 2265 -22 2370 0 208 44
382 198 449 399 10 27 73 417 142 865 94 611 124 829 120 868 -15 134 -94 246
-214 305 l-67 33 -1612 3 c-887 1 -1613 4 -1613 5 0 49 -56 410 -71 453 -58
178 -199 317 -385 380 -69 24 -99 27 -234 31 -137 3 -160 2 -196 -15z m4040
-1204 c13 -21 3 -98 -105 -808 -66 -432 -126 -804 -135 -827 -20 -54 -83 -119
-142 -146 l-47 -22 -1105 0 c-1060 0 -1107 1 -1154 19 -59 22 -120 76 -146
126 -10 20 -23 63 -29 96 -13 72 -241 1563 -241 1575 0 5 695 9 1545 9 l1545
0 14 -22z"/>
<path d="M1600 841 c-83 -44 -122 -109 -121 -202 0 -128 89 -213 221 -213 150
0 246 115 219 261 -20 105 -107 173 -220 173 -42 -1 -76 -7 -99 -19z"/>
<path d="M3805 841 c-153 -71 -171 -284 -32 -378 164 -111 384 26 352 217 -10
58 -62 129 -114 157 -56 29 -148 31 -206 4z"/>
</g>
</svg>
