<svg version="1.2" xmlns="http://www.w3.org/2000/svg" viewBox="0 0 1725 2048" width="1725" height="2048">
	<title>delete-svg</title>
	<style>
		.s0 { fill: #ff0000 } 
	</style>
	<g id="Layer">
		<path id="Layer" fill-rule="evenodd" class="s0" d="m866.5 0.4l147 0.2 12.5 2.2c44.6 8.1 83.3 23.9 117.3 48.1 46.4 32.9 78.8 76.4 93 124.7 2 6.6 5.6 19.5 8.2 28.9 4.8 17.3 12.5 45 15 54 3 10.5 10.6 18.8 22.1 24.2l5.9 2.8 174 0.5c172.7 0.6 174.1 0.6 182.5 2.7 39.4 9.8 67.1 34.2 78 68.8 3.2 9.9 3.9 30.9 1.5 42.6-3.5 17.5-11.6 32.2-25.4 46-12.6 12.7-27.6 22-42.6 26.5-3.3 1-6.1 1.9-6.2 1.9-0.3 0.2-1.7 34.7-11.8 285-6.7 166.5-13.8 343.3-16.5 410-1.7 40.7-3.9 96.3-5 123.5-1.1 27.2-3.3 82.8-5 123.5-5.8 143.3-13 324.6-15 374.5-2.3 57.7-3.3 72.4-6.1 85.9-6.1 29.7-18.8 56.9-38.2 82.1-36.7 47.4-94.7 79.3-158.5 87.4-11.1 1.4-66.4 1.6-530.7 1.6-556.4 0-525.2 0.3-550-4.7-35.7-7-75.1-25.3-102.6-47.5-34.4-27.8-59.3-63.8-70.8-102.7-5.3-17.7-7.4-33.6-8.6-63.6-0.7-18.4-6.5-164-10.5-263.5-1.6-40.4-5.5-135.2-8.5-210.5-5.6-140.5-7.3-181.5-12.5-310-1.6-40.7-5.5-135.7-8.5-211-12.8-319.1-14.5-359.9-14.8-360-0.1-0.1-2.2-0.7-4.7-1.4-6.1-1.7-21.3-9-28.6-13.6-7-4.5-17.9-14.8-23.9-22.6-8.5-10.9-14.9-25-17.5-38.6-1.9-9.6-0.8-32 2-40.8 3.3-10.5 11.2-25.1 18.1-33.3 14.2-17.1 35.5-29.6 61.4-35.9 6.4-1.5 21.5-1.7 181-2.2l174-0.6 6.5-3.1c8.2-3.9 14.8-9.8 18.2-16 1.4-2.7 3.9-9.9 5.6-15.9 24.1-89 27.8-99.6 42.3-123.7 22.9-37.9 56.8-69.8 98-92.4 29.1-15.9 58.5-26 90.9-31.3 6.9-1.1 14.3-2.2 16.5-2.4 2.2-0.2 70.2-0.3 151-0.3zm127 192.1l-129.5-0.2c-103.3-0.1-130.3 0.1-133.6 1.2-14.7 4.7-30.1 17.4-34.9 28.8-1.4 3.4-3.6 11.2-12 41.9-3.8 13.5-3.7 15.5 0.5 19.3 2.2 2 3.6 2 178.5 2h176.3l2.5-2.3c1.4-1.3 2.8-3.4 3.1-4.6 0.8-3.3-13.6-54.6-17-60.3-5.1-8.8-14.7-16.7-27.2-22.6zm-510.5 469.8c-22.1 9.5-38 28.2-42.4 49.7-1.4 6.8-1.3 13 0.4 67 3.3 98.4 4.9 150.1 6.5 198.5 0.8 25.3 2 59.5 2.5 76 0.6 16.5 1.7 50.8 2.5 76.2 0.8 25.5 2.2 66.9 3 92 0.8 25.2 4 122.1 7 215.3 7.1 219 7.2 223.4 8.9 229.7 10.7 39.9 57.2 63 98.7 48.9 12.2-4 20.6-9.3 30-18.6 6.8-6.8 9.4-10.2 12.8-17 8.2-16.6 8.2 3.7 0.2-241-8.7-266.7-9.8-300.7-11.1-338.5-1.9-56.5-4-122.1-8-245.5-2.1-67.9-4.2-127.7-4.5-132.8-1-16.6-7.1-31-17.8-42.1-11.1-11.4-25.5-19.3-40.9-22.5-15.6-3.2-33.4-1.4-47.8 4.7zm363.5-4.9c-16.7 3.8-28 9.9-39.1 21-8.8 8.8-13.8 16.8-17.6 28.1l-2.3 7-0.3 469c-0.2 343.8 0 471.1 0.8 477 4 27.7 24.5 49.7 53.9 57.7 10.7 3 30.5 3 41.2 0 24.6-6.7 44.1-24.3 51.7-46.6l2.7-8.1v-474c0-456.8-0.1-474.2-1.8-480.5-3.3-11.5-8.3-19.7-18.2-29.5-9.9-9.9-19.4-15.6-33-19.6-9.1-2.7-29.3-3.5-38-1.5zm347 0.2c-15.6 3.5-30 11.7-40.8 23.3-7.2 7.8-11 14.3-14.3 24.6-3.1 9.5-1.9-20.2-14.9 381-3 92.9-6.2 189.6-7 214.7-1.8 53.4-3.9 118.9-6 184-0.8 25.5-1.9 59.6-2.5 75.8-3.3 99-3.2 95-1.6 103 0.9 4.1 3.4 11.3 5.7 16 8.2 16.7 26.7 31.3 46.7 36.9 29.8 8.2 63.7-2.1 81.9-25 6.2-7.9 10.8-16.9 12.8-25.1 1.7-6.8 2.1-15.7 5.5-120.8 7.9-243.6 22.1-681 23-707 0.6-17.3 1.7-50.9 2.5-74.6 1.7-50.9 1.3-55.1-6.3-69.9-2.6-4.9-6.3-9.7-12.7-16.1-7.8-7.8-10.4-9.8-18.5-13.7-5.2-2.5-12.2-5.3-15.5-6.2-8.7-2.4-29.2-2.9-38-0.9z"/>
	</g>
</svg>