<svg version="1.2" xmlns="http://www.w3.org/2000/svg" viewBox="0 0 210 122" width="210" height="122">
	<title>Logo2_P2_AbubakarTariq-svg</title>
	<style>
		.s0 { fill: #ffffff } 
	</style>
	<path id="Forma 3" class="s0" d="m92 70c-8.4-1.8-21-12.9-22.8-27.9-0.8-6.1-0.5-9 1.1-14.9 3.8-14.2 17.2-22.3 22.4-23.8 11.1-3.4 30.2-0.3 39.3 13.6 0.3 0.4-11.1 6.9 1 12 0.4 0.2-2.7 5.9 5 9 1 0.4-0.9 11.5-7.8 21.9-0.2 0.3-1.2-6.9-7.1-6.2-0.3 0 18.2-24.1-8.4-39.4-0.3-0.2-26.1-12-35.7 16.2-0.2 0.4-7.4 16.8 15 31.5 0.4 0.3-6 4.4-2 8z"/>
	<path id="Forma 5" class="s0" d="m147 58c0-1.1 0-12.3 0-13 0.1-3.8-3-1-3-3 0-1.8-0.1-26.3 0.1-26.6 2.8-4.7 7.8-1.3 7.8 0.7 0 2.3-0.1 40.3-0.1 45.4 0 0.3-2.5 3-4.8 0.1"/>
	<path id="Forma 4" class="s0" d="m60.8 61.6c0 2.4-4.9 3-4.9-0.1 0-0.3 0-3.8 0-10.4 0-0.3 0-9.2 0.1-18 0-1.5-4-1.2-4-2.4 0-0.3 0-10.4 0-16.7 0-0.7 1.5-0.9 1.9 0 0 0 0 7.8 0 10.9 0 1 3.1 1 3.3 0 0-0.2 0-9-0.1-10.9 0-0.7 1.2-1 1.7-0.1 0.1 0.2 0.1 8.2 0.1 10.9 0 0.2 1.1 1.6 2.9 0.1 0.2-0.1 0-6.7 0.2-10.9 0-0.3 1.1-1.6 2.3 0 0.1 0.2 0 5.7-0.1 10.9-0.1 3.1-0.1 3.1-0.1 5.6-0.1 1.6-3.4 1.2-3.1 2.5"/>
	<path id="Forma 2" class="s0" d="m120.4 48.9c-5.1-5.5-8.3 1.2-8.9 0.7-8.8-9.5-11.8 2.4-12.2 2.3-6-2.9-6.7 5.2-7.3 4.9-3.9-2.3-6.7-4.2-8.5-8.3-5.6-12.2-2.5-23.9 6.7-30.3 9.8-6.8 25.4-4.4 32.5 6 5.6 8.1 5.1 21.3-1.4 25.9-0.1 0-0.5-0.8-0.9-1.2z"/>
	<path id="Cra" fill-rule="evenodd" class="s0" d="m28.3 106q0.7 0.5 0.3 1.4 0 0 0 0.1-1.3 1.8-2.7 3.6-1.2 1.8-2.9 3.3-2.5 2.3-5.4 2.6-2.9 0.3-5.9-0.8-0.9-0.3-1.7-0.8-0.6-0.6-1.2-1.3-1.1-1.1-1.8-2.5-0.7-1.4-1.2-2.9-0.3-1.1-0.5-2.1-0.1-1.1-0.2-2.2-0.2-3 0.1-6 0.3-3 1.3-5.9 0.6-1.8 1.4-3.5 0.9-1.7 2.1-3.3 1.3-1.6 2.9-2.5 1.6-1 3.3-1.3 1.7-0.4 3.4-0.2 1.6 0.2 3.1 0.7 2.3 0.8 4.1 3 1 1.3 1.3 3 0.3 1.5-1.2 2-1.8 0.7-3.6 0-0.9-0.2-1.2-1.1-0.2-0.3-0.4-0.5-0.1-0.3-0.2-0.6-0.5-0.8-1.2-1.4-0.6-0.8-1.6-1.3-0.6 0.4-1.1 0.9-0.4 0.5-0.9 1.1-1.1 1.7-1.8 3.5-0.7 1.7-1.2 3.6-0.6 2.9-0.9 5.8-0.1 2.9 0.3 5.8 0.1 1.3 0.4 2.4 0.3 1.2 0.9 2.3 0.3 0.8 0.7 1.4 0.4 0.7 1 1.3 0.3-0.1 0.5-0.2 0.3-0.1 0.4-0.3 1.6-1.3 2.9-2.7 0.8-0.9 1.5-1.7 0.8-0.9 1.4-1.8 0.4-0.6 1.1-0.9 0.7-0.4 1.5-0.4 0.8-0.1 1.6 0 0.7 0.1 1.3 0.4zm19.2-2q0.3 0.4 0 0.7-0.4 0.4-0.9 0.4-1.5 0.5-2.8 0.1-1.2-0.5-2.1-1.7-0.3-0.3-0.5-0.7-0.2-0.4-0.5-0.8-0.1-0.2-0.3-0.4 0-0.2-0.2-0.5-0.3 0.3-0.4 0.5 0 0.2-0.1 0.5-0.8 2-1.3 4.2-0.3 1.8-0.7 3.7-0.3 1.8-0.7 3.6-0.1 1.1-0.6 2.5-0.2 0.8-0.6 1.1-0.4 0.2-1.2 0.3h-0.5q-0.9-0.1-1.3-0.3-0.3-0.4-0.5-1.2-0.2-2.1-0.4-4-0.1-2.1-0.2-4.2-0.2-2.2-0.3-4.4 0-2.1-0.1-4.4v-1.1q0-0.5 0.4-0.6 1.2-0.5 2.3 0 0.5 0.1 0.5 0.9 0.1 0.8 0.1 1.5 0.1 0.7 0.2 1.5 0 0.4 0 0.8 0 0.3 0 0.8 0 0.2 0.3 0.6 0.1-0.5 0.2-0.8 0.2-0.4 0.3-0.8 0.2-0.7 0.5-1.3 0.3-0.6 0.7-1.3 1-1.5 2.6-2 1.6-0.5 3.3 0.1 0.9 0.4 1.2 0.9 0.4 0.6 0.7 1.4 0.3 0.7 0.6 1.4 0.3 0.6 0.6 1.3 0.3 0.5 0.6 0.9 0.3 0.4 0.8 0.6 0.1 0 0.1 0.1 0.1 0 0.2 0.1zm15.9-2.5q0.1 1.4 0.1 2.7 0.1 1.3 0 2.7-0.1 2.5-0.3 5-0.1 2.5-0.2 5v0.8q-0.1 0.5-0.6 0.7-0.5 0.3-1 0.3-0.5 0.1-1.1 0-0.9-0.1-1.3-0.4-0.2-0.4-0.2-1.4-0.1-0.4-0.1-0.7 0.1-0.4 0.1-0.9-0.3 0.1-0.5 0.2-0.2 0-0.3 0.1-0.1 0.1-0.3 0.2-0.2 0.1-0.3 0.2-1.7 1.5-3.6 1.8-1.9 0.2-3.9-0.4-1.7-0.5-2.6-1.6-0.9-1.2-1.1-2.8-0.3-1.6 0.4-2.8 0.6-1.3 2-2.3 0.4-0.3 1-0.5 0.6-0.3 1.3-0.5 1.8-0.5 3.6-0.6 1.9-0.1 3.6 0.1 0.2 0 0.4 0 0.3 0 0.4 0.1 0.1-0.4 0.1-1.2 0.1-0.9 0.1-1.7 0.1-1 0-1.9-0.1-0.9-0.1-1.5-0.1-0.6-0.2-1.2-0.2-0.6-0.5-1.2-0.2 0-0.4 0-0.2 0-0.4 0.2-0.8 0.6-1.5 1.1-0.8 0.5-1.6 1.1-0.8 0.7-1.7 0.7-0.9 0.1-1.8-0.3-0.3-0.1-0.4-0.4-0.1-0.2 0.1-0.5 0.2-0.3 0.3-0.4 2.1-2.4 5.3-3.6 1.8-0.7 3.7-0.4 2.2 0.4 2.9 2.4 0.3 0.9 0.4 1.9 0.2 0.9 0.2 1.9zm-4.6 10.9q0-0.6 0.1-1.2 0-0.5 0-1.2-1.3-0.5-2.4-0.5-1.1 0-2.1 1.1-0.8 0.7-1.2 1.6-0.4 0.9 0.1 2.2 0.7-0.3 1.3-0.6 0.7-0.3 1.4-0.5 0.7-0.3 1.4-0.5 0.7-0.1 1.4-0.4z"/>
	<path id="Forma 6" class="s0" d="m76 90c-3.5 1.5-4.5 5.5-4.5 6.1-0.1 0.5-0.4 5.1 1.5 6.9 0.5 0.5 1.1 1 2 1 1.9 0.1 2.5-1.2 3.8-3.3 2.6-4.2 2.1-4.9 3.2-9.7 1.1-4.9 1.5-8.6 2.1-9.9 1.9-4 4.7-3.3 6.2-1.5 1.5 1.7-1.7 10.1-0.3 18.4 0.1 0.6 0.5 1 1 1.1 1.5 0.2 1.2-2.5 2.8-3.5 3.3-1.9 5.5 0 5.5 1.3-0.1 2.1-9.1 5.6-6.9 8.7 1.6 2.3 13.5 8.4 12.6 10.4-0.5 1-3 2.1-5 1-5.5-3.1-7.9-6.4-10-8-0.7-0.6-2 0-2 1 0.1 2.4 0.1 4.5 0 6-0.2 4.6-5.9 2.9-6 1-0.3-4.2 0.6-12.1 1-15 0.1-0.6-1.1 1.7-1.7 2.6-1.4 2.5-1.8 2.5-4.3 3.4-2.3 0.8-3.3 0.7-6 0-0.9-0.2-3.3-3.4-3.5-3.8-0.9-1.5-1.7-4.5-1.5-8.2 0.2-5.5 7.2-10.3 11-9 0.9 0.3 2.7 1.7 0.7 2.6"/>
	<path id="Pizza" fill-rule="evenodd" class="s0" d="m128.8 91.7q0.3 2.1 0 4.1-0.4 1.9-1.3 3.6-1 1.7-2.6 3-1.5 1.3-3.4 2-1.5 0.6-3.1 0.9-1.5 0.3-3 0.5-0.5 0.2-1.1 0.3-0.6 0.1-1.2 0.2 0 0.9-0.1 1.8 0 0.9 0 1.8-0.1 2.1-0.1 4.1 0 2 0 4v0.6q-0.1 0.6-0.6 1-0.5 0.2-1 0.4-0.5 0-1.1 0.1-0.6 0-1.2-0.1-0.5 0-1.1-0.3-1-0.4-1.1-1.4-0.1-0.9-0.1-1.6-0.1-0.9-0.1-1.7-0.4-4.2-0.4-8.3 0-4.1 0.2-8.3 0.1-2.7 0.2-5.4 0.1-2.7 0.2-5.4v-1.5q-0.4-0.1-0.8-0.1-0.4-0.1-0.8-0.1-0.9-0.2-1.5-0.6-0.6-0.5-0.3-1.2 0.2-0.5 0.5-0.9 0.4-0.4 0.9-0.6 1-0.8 2.1-1.2 1.1-0.4 2.3-0.6 3-0.6 6-0.3 3 0.3 5.9 1.5 6.4 2.6 7.7 9.7zm-8.4 5.7q1.5-3.5 0.6-7-1.4-5.7-6.9-6.8-0.1-0.1-0.3 0-0.1 0-0.3 0 0.2 4.7 0 9.3-0.1 4.6-0.3 9.4 0.7 0.1 1.1-0.1 0.5-0.2 1-0.3 1.8-0.5 3-1.7 1.3-1.1 2.1-2.8zm14.3 1.5q0.9 0.3 0.9 1.1 0 0.3 0 0.5 0 0.3-0.1 0.5-0.3 3.7-0.4 7.4 0 3.6 0.1 7.3 0.1 1.3-1.1 1.6-0.4 0.1-0.7 0.1-0.3 0-0.7 0-0.9-0.1-1.4-0.5-0.4-0.4-0.5-1.4-0.1-0.7-0.1-1.5 0-0.8-0.1-1.6v-10.2q0.1-0.6 0.1-1.1 0.1-0.6 0.2-1.1 0-0.8 0.9-1.1 1.5-0.5 2.9 0zm1.5-6.9q0.2 1.3-0.3 2.6-0.1 0.4-0.4 0.8-0.2 0.4-0.5 0.7-0.6 0.6-1.5 0.6-0.8 0-1.4-0.7-0.4-0.5-0.6-1.1-0.5-2.2 1.1-3.8 0.4-0.4 0.9-0.6 0.6-0.2 1.2-0.3 0.3-0.1 0.5 0.1 0.3 0.1 0.5 0.3 0.5 0.6 0.5 1.4zm24.5 22.8q0.3 0.2 0.3 0.6 0 0.4-0.4 0.7-1.1 0.7-2.2 0.6-2.1 0-4.2-0.2-1.1 0-2.3 0-1.2-0.1-2.4-0.2-1.4-0.1-2.8 0.1-1.4 0.1-2.8 0.4-1.5 0.4-3 0.4-0.3 0-0.6 0-0.3-0.2-0.6-0.2-1.3-0.4-1.5-1-0.3-0.7 0.5-1.9 1.9-2.9 3.8-5.8 1.9-3 3.8-5.9 0.4-0.6 0.8-1.3 0.4-0.7 0.9-1.5-0.4-0.1-0.7-0.2-0.2-0.2-0.5-0.2-0.9 0-1.8 0.1-0.8 0-1.7 0.1-0.6 0-1.2 0-0.6 0.1-1.1 0-0.5-0.1-0.9-0.3-0.4-0.1-0.9-0.4-0.3-0.1-0.3-0.5 0-0.4 0.3-0.5 0.5-0.4 1.1-0.7 0.6-0.1 1.2-0.2 0.5-0.1 1.1-0.1 2.2-0.3 4.4-0.3 2.2 0 4.3 0.1 0.7 0.1 1.3 0.2 0.7 0.1 1.2 0.5 1.2 0.9 0.8 2.2-0.1 0.4-0.3 0.8-0.2 0.4-0.4 0.8-0.5 0.8-1 1.6-0.5 0.7-0.9 1.5-1.1 1.9-2.4 3.8-1.1 1.8-2.3 3.7-0.2 0.2-0.3 0.6-0.2 0.3-0.5 0.8 2.8 0.2 5.4 0.4 2.6 0.2 5.1 0.5 0.6 0.1 1.3 0.2 0.7 0 1.3 0.2 0.3 0 0.6 0.2 0.2 0.1 0.5 0.3zm25.1 0q0.3 0.2 0.2 0.6 0 0.4-0.4 0.7-1 0.7-2.1 0.6-2.1 0-4.2-0.2-1.2 0-2.3 0-1.2-0.1-2.4-0.2-1.4-0.1-2.8 0.1-1.4 0.1-2.8 0.4-1.5 0.4-3 0.4-0.3 0-0.6 0-0.3-0.2-0.6-0.2-1.3-0.4-1.6-1-0.2-0.7 0.6-1.9 1.9-2.9 3.8-5.8 1.9-3 3.8-5.9 0.4-0.6 0.8-1.3 0.4-0.7 0.9-1.5-0.4-0.1-0.7-0.2-0.2-0.2-0.5-0.2-0.9 0-1.8 0.1-0.9 0-1.8 0.1-0.5 0-1.1 0-0.6 0.1-1.2 0-0.4-0.1-0.8-0.3-0.4-0.1-0.9-0.4-0.3-0.1-0.3-0.5 0-0.4 0.3-0.5 0.5-0.4 1.1-0.7 0.6-0.1 1.2-0.2 0.5-0.1 1.1-0.1 2.2-0.3 4.4-0.3 2.2 0 4.3 0.1 0.7 0.1 1.3 0.2 0.7 0.1 1.2 0.5 1.2 0.9 0.8 2.2-0.2 0.4-0.3 0.8-0.2 0.4-0.4 0.8-0.5 0.8-1 1.6-0.5 0.7-0.9 1.5-1.1 1.9-2.4 3.8-1.1 1.8-2.3 3.7-0.2 0.2-0.4 0.6-0.1 0.3-0.4 0.8 2.8 0.2 5.4 0.4 2.5 0.2 5.1 0.5 0.6 0.1 1.3 0.2 0.7 0 1.3 0.2 0.3 0 0.6 0.2 0.2 0.1 0.5 0.3zm19.8-13.3q0.2 1.4 0.2 2.7 0 1.3 0 2.7-0.2 2.5-0.3 5-0.1 2.5-0.3 5v0.8q-0.1 0.5-0.6 0.7-0.5 0.3-1 0.3-0.5 0.1-1 0-1-0.1-1.3-0.4-0.3-0.4-0.3-1.4-0.1-0.4-0.1-0.7 0.1-0.4 0.1-0.9-0.3 0.1-0.5 0.2-0.1 0-0.2 0.1-0.2 0.1-0.4 0.2-0.1 0.1-0.3 0.2-1.7 1.5-3.6 1.8-1.8 0.2-3.9-0.4-1.6-0.5-2.5-1.6-0.9-1.2-1.2-2.8-0.2-1.6 0.4-2.8 0.7-1.3 2-2.3 0.4-0.3 1.1-0.5 0.6-0.3 1.2-0.5 1.8-0.5 3.6-0.6 1.9-0.1 3.7 0.1 0.1 0 0.4 0 0.2 0 0.4 0.1 0-0.4 0.1-1.2 0-0.9 0-1.7 0.1-1 0-1.9 0-0.9-0.1-1.5-0.1-0.6-0.2-1.2-0.1-0.6-0.5-1.2-0.2 0-0.4 0-0.2 0-0.3 0.2-0.8 0.6-1.6 1.1-0.8 0.5-1.6 1.1-0.8 0.7-1.7 0.7-0.9 0.1-1.7-0.3-0.4-0.1-0.5-0.4-0.1-0.2 0.2-0.5 0.1-0.3 0.3-0.4 2-2.4 5.3-3.6 1.8-0.7 3.6-0.4 2.3 0.4 3 2.4 0.3 0.9 0.4 1.9 0.1 0.9 0.1 1.9zm-4.6 10.9q0-0.6 0.1-1.2 0.1-0.5 0.1-1.2-1.3-0.5-2.4-0.5-1.2 0-2.2 1.1-0.8 0.7-1.2 1.6-0.3 0.9 0.1 2.2 0.7-0.3 1.3-0.6 0.7-0.3 1.4-0.5 0.7-0.3 1.4-0.5 0.7-0.1 1.4-0.4z"/>
	<path id="Forma 7" class="s0" d="m66 111c4.5 0.2 4.5 0.1 8.9 0.3 1.1 0.1 1.9 0.1 2.1 0.7 0.2 0.8-0.6 1.8-1.9 1.8-4.4 0-4.9 0-10.1-0.1-1 0-0.9-0.3-1.1-0.9-0.3-0.8 0.8-1.8 2.1-1.8z"/>
</svg>