<svg version="1.2" xmlns="http://www.w3.org/2000/svg" viewBox="0 0 299 298" width="299" height="298">
	<title>time-svg</title>
	<style>
		.s0 { fill: #000000 } 
		.s1 { fill: #ffffff } 
	</style>
	<g id="Layer">
		<path id="Layer" fill-rule="evenodd" class="s0" d="m81.3 0c1.1 0 33.2 58.1 32.8 59.5-0.1 0.3 0.5 1.3 1.4 2.1 1.4 1.4 2.3 1.4 9.3 0 4.2-0.9 10.9-3.1 14.7-5l7-3.4 7.3 2.4c4.5 1.5 10.8 2.7 16.7 3.1l9.4 0.6 10.2-21.2c5.6-11.6 18.1-38.1 18.6-38.1 1.5 0-7.5 20.7-16.9 39.3-4.9 9.8-8.7 18.1-8.4 18.4 0.3 0.3 9.2-1.6 19.7-4.2 17.3-4.2 20.1-4.7 27.8-4.3 5.5 0.3 9.8 1.1 11.9 2.2 4.8 2.5 9.1 7.4 9.8 11.1 0.5 2.9 1 3.3 4.6 3.9 5.9 1 10 5.9 13.8 16.5 4.7 12.9 9.5 19 17.3 22l2.9 1.1-5.1 4c-6.3 5-9.3 10.8-11.6 22-0.9 4.7-2.3 9.7-3.1 11.1-1.9 3.8-7.1 7.9-10 7.9-2 0-2.4 0.5-2.4 3.1 0 6.9-6.9 14.4-15.6 16.8-5.6 1.6-21.1 1.4-36.6-0.5-19.6-2.3-32.3-0.7-45.6 5.7l-6.2 3-5.8-2.2c-4.5-1.8-8.3-2.3-18.7-2.6-12.8-0.4-13.3-0.4-31 4.2-21.2 5.4-31.9 6.2-39.7 2.7-5-2.2-10-7.7-10.8-11.9-0.4-2.3-1.2-2.9-4.4-3.4-5.9-1-10.7-6.6-14-16.6-1.5-4.5-4-10-5.7-12.2-3.1-4.3-10.3-10.1-12.6-10.1-2.3 0-1.4-1.4 2.8-4.3 5.2-3.6 9.5-10.6 10.9-17.6 2.6-12.8 4.2-17.1 7.7-20.1 1.8-1.6 4.4-3.2 5.7-3.6 1.9-0.4 2.6-1.5 3.1-4.4 0.9-5.5 5.1-10.5 11.3-13.6 7-3.5 18.3-4.2 35.9-2 12.3 1.5 24.3 2.1 24.3 1.2 0-0.2-2.2-4.3-4.9-9.2-2.7-4.9-10.3-18.9-16.9-31.2-6.6-12.2-11.5-22.2-10.9-22.2zm148.3 51.1c-4.5 0.1-9 0.3-10.1 0.6-1.1 0.2-9 2.2-17.6 4.3-8.5 2.1-18.7 4.2-22.6 4.5-8 0.8-21.4-0.8-28.3-3.4l-4.5-1.6-6.5 3.2c-12.7 6.3-26.9 7.6-50.5 4.7-13.6-1.7-26.1-1.5-32.8 0.6-2.1 0.6-5.6 2.9-7.7 5-3.2 3.2-4.1 4.9-4.6 9-0.6 4.5-0.9 5-3.1 5-1.6 0-4 1.4-6.3 3.8-2.9 2.9-4 5-5 9.7-2.8 14-5.2 19.8-10.2 24.7l-4.7 4.8 2.7 1.4c5.8 3.1 11.2 10.7 14.2 20.1 3.4 10.7 8.5 16.5 14.8 16.5 2.6 0 3.1 0.5 3.7 3.2 2.2 10.7 12.9 15.8 28.5 13.7 3.6-0.5 13.8-2.8 22.8-5 15.8-4 16.7-4.1 29-3.7 9.4 0.4 14.3 1 18.7 2.6l5.9 2 4.1-2.3c5.5-3.2 17.4-6.4 26.6-7.2 4.7-0.3 13.1 0.1 22.3 1.2 19.3 2.2 32.3 1.8 38.8-1.4 5.9-2.8 9.1-7.1 9.8-13 0.5-4.2 0.8-4.6 3.8-5.2 6.6-1.3 9.2-5.4 12.2-18.9 2.2-10.2 5.3-16.3 10.2-20.5l3.3-2.8-2.5-1.5c-6.3-4-10.7-9.9-13.9-18.6-5.3-14.8-7.3-17.3-14.9-18.5-3.1-0.5-3.7-1.1-4.3-4-1-4.7-3.8-8.1-8.9-10.8-3.5-1.9-5.8-2.3-12.4-2.2z"/>
		<path id="Layer" class="s0" d="m248.1 83.2c0.7-0.2 1.3 5.1 3.5 35.1 0.9 12 1.4 22 1.3 22.2-0.2 0.1-2.5 0.5-5 0.6l-4.7 0.4-14.2-18.3c-7.8-10.1-14.4-18.1-14.6-17.9-0.2 0.2 0.3 8.9 1.1 19.3 0.8 10.4 1.5 19 1.5 19.1 0 0.2-2.4 0.3-5.4 0.3h-5.4l-0.6-6.8c-1.4-15.3-3.7-49.4-3.4-49.7 0.2-0.2 2.4-0.6 4.9-1l4.7-0.7 13.8 17.9c7.6 9.8 13.9 18 14.1 18.2 1.2 1.6 1.1-2.8-0.2-19-0.8-10.1-1.5-18.5-1.5-18.6 0-0.1 2.1-0.4 4.8-0.6 2.6-0.2 5-0.4 5.3-0.5z"/>
		<path id="Layer" class="s0" d="m186.3 88.1l5.7-0.1v3.9c0 4.6 0 4.6-15.4 5.6l-9.8 0.7 0.6 3.7c0.3 2 0.6 5.6 0.6 8v4.4l10.4-0.7 10.4-0.7 0.4 3.8c0.3 2.1 0.5 3.9 0.4 4-0.1 0.1-4.7 0.5-10.4 0.9-11.6 0.8-10.9-0.1-9.5 11.3l0.6 5.3 12.9-0.7 12.8-0.7v3.6c0 1.9-0.5 3.8-1.2 4.2-1.5 1-34 3.6-34.7 2.8-0.5-0.5-5.1-56.6-4.7-57.1 0 0 5.7-0.5 12.6-1.1 6.9-0.5 15.1-1 18.3-1.1z"/>
		<path id="Layer" fill-rule="evenodd" class="s0" d="m146.1 102c4.2 7.8 1.8 19.1-5 24-3.3 2.3-13 5-17.9 5h-3.4l0.7 10 0.8 10h-11.1l-0.6-5.8c-1.5-14.4-3.7-50.4-3.2-50.9 0.3-0.3 4.5-0.9 9.3-1.3 17.3-1.4 26.3 1.2 30.4 9zm-21.5-1c-7.6 0-7.1-1.2-5.9 13.8l0.6 8.2 5.1-0.6c9.5-1.2 12.6-4.2 12.6-12 0-2.6-0.8-4.4-2.9-6.5-2.7-2.6-3.6-2.9-9.5-2.9z"/>
		<path id="Layer" fill-rule="evenodd" class="s0" d="m73.1 96.2c7.4 0.3 9.1 0.7 12.7 3.1 7.9 5.2 11.7 12.3 12.9 24.3 1.6 16.9-8.1 29.7-23.7 31.1-17.3 1.6-28.4-8.8-29.7-27.7-1-13.9 3.9-23.8 14.1-28.7 4.4-2 6.3-2.3 13.7-2.1zm-0.9 8.9c-5.8 0-8 0.9-11.5 4.6-7.6 8.1-5.1 27.8 4.3 34.1 2.8 1.9 4.4 2.3 8.3 1.9 9.4-0.8 13.9-7.1 13.9-19-0.1-8.9-2.1-14.6-6.8-18.7-2.9-2.5-4.3-3-8.2-2.9z"/>
		<path id="Layer" class="s0" d="m252 200c1.5 0.8 1.7 1.6 1.1 3.3-0.4 1.2-0.6 2.7-0.4 3.4 0.6 1.6-4.7 31.6-5.8 32.7-0.5 0.6-1.8 0.5-3.3-0.2-2.1-0.9-2.9-0.6-7 3.3-4.7 4.3-4.7 4.4-5.6 13-1.2 11.8-3.7 18.8-7.9 22.2-2.3 2-9.5 1.6-12.3-0.7-6.3-4.9-3.6-13.5 7.8-25.1 6.7-6.7 7.6-8.1 8-12 0.4-3.8 0.3-4.2-0.8-2.5-4.3 6.2-6.2 7.8-8.8 7.2-2.4-0.4-3 0.1-5.2 4.2-3.2 6-6.1 7.6-10.1 5.6-2.7-1.5-3.1-1.4-5.1 0.5-1.2 1.2-3 2.1-4 2.1-2 0-5.8-1.9-6.8-3.3-0.4-0.6-1.2-0.4-2.3 0.6-2.2 2.2-5.7 2.1-8.5-0.1-2.3-1.8-2.4-1.8-5 1.1-2.9 3.3-4.8 3.2-9.4-0.4-1.8-1.4-2.6-3-2.6-5.1 0-1.9-0.4-2.8-1.2-2.6-2 0.7-3.8 4.9-3.8 8.9 0 11.1-5 24-9.9 25.7-5 1.7-11.1-0.4-13-4.5-2.7-5.9-0.3-11.3 9.9-21.7 6.9-7.1 8-8.7 8.5-12.6 0.5-3.9 0.4-4.2-0.7-2.6-0.7 1.1-2.5 3.3-3.9 5-2.5 2.8-2.9 2.9-6.5 2.1-5.8-1.5-6-4.2-1.8-22.8 0.9-3.7-0.6-3.4-5 1-4.8 4.8-10.8 16.9-13.1 26.4-1 4-1.9 7.5-2 7.7-0.7 0.9-5.5-2.1-5.5-3.5 0-1.4-0.5-1.2-2.7 0.9-1.6 1.4-3.5 2.8-4.4 3.1-2.3 0.8-9.5-2.7-10.9-5.3-1.5-2.9-0.6-12.5 2-20 1-3 1.7-5.6 1.5-5.8-0.8-0.9-8 12.4-11.2 20.8-2 5.2-3.9 9.9-4.3 10.3-0.4 0.5-1.7 0.4-2.9-0.2-1.7-1-2.1-2.1-2.1-6.2v-5l-5.6 6.5c-4.5 5.4-6.1 6.6-8.5 6.6-3.8 0-8.5-2.4-10-5.1-2.3-4.5 1.7-23 6.6-30.2 3-4.4 5.7-4.7 9.9-1.2 4.2 3.4 3.9 7.9-0.9 15.2-3.5 5.2-3.8 5.5-6.9 4.9l-3.3-0.6-0.7 6.1c-0.4 3.6-0.3 6.6 0.2 7.1 2 2 7.4-3.2 15.1-14.5 3.2-4.8 3.3-5 2.6-12.4-0.7-7.3-0.7-7.4 1.4-6.1 2.7 1.7 3.1 2.8 3.8 12.1l0.6 7.9 3.5-7c1.8-3.9 5-8.9 6.9-11.2 3.4-3.9 3.6-4 5.4-2.4 1.8 1.6 2 1.6 4.3-0.9 1.4-1.5 3.1-2.7 3.7-2.7 2.1 0 7.8 4.3 8.3 6.3 0.7 2.9-1.3 8.4-4.8 12.9-3.2 4.2-4.4 4.7-7.7 3.4-1.4-0.6-1.7 0.3-2.3 5.5-1.2 10.1 1.8 10.2 9.9 0.2 5.9-7.2 6.7-8.9 9.5-19.6 1.3-4.8 2.7-8.7 3.2-8.7 0.4 0 1.6 0.9 2.5 1.9 1.6 1.9 1.7 1.9 3.5-0.5 3-3.7 5.4-4.7 8.1-3.2 1.2 0.7 2.7 1.3 3.2 1.4 2 0.1 5.5 1.6 5.5 2.3 0 0.4-0.6 3.1-1.4 6.1-0.8 3-1.7 7.5-2 10l-0.7 4.5 2.5-3c1.4-1.6 4-6.3 5.7-10.5 4.1-9.5 4.3-9.7 7.5-7.9l2.6 1.4-0.6 9.3-0.7 9.3 2.1-2.1c1.2-1.2 2.8-4 3.6-6.2 3.9-11.2 10.9-17.6 14.4-13.3 1.9 2.2 2.6 1 4.8-7.8 1.1-4.3 2.3-8.1 2.5-8.4 1.1-1 4.7 2.3 4.7 4.3 0 1.1-1.2 5.8-2.6 10.5-4.5 14.3-5.1 17.2-5.8 24.9l-0.7 7.5 2-2.3c1.1-1.2 3.2-5.9 4.7-10.5 4.9-14.9 10-22.7 14.8-22.7 3.7 0 8.6 4.6 8.6 8.1 0 3.2-0.3 3.4-3.2 1.8-1.5-0.8-1.8-1.7-1.4-3.5 1.3-5.2-4.8-0.8-8.6 6.3-4.1 7.5-7.4 24.3-4.8 24.3 1.6 0 5.7-8.1 8-15.8 2.2-7.2 3.6-8.6 6-5.7 0.9 1.1 1 2.6 0.2 6.2-1.9 8.4-2.4 13.3-1.4 13.3 1.8 0 7.2-11.8 8.7-19.1 2.3-10.8 3.5-14.9 4.3-14.9 0.5 0 1.6 0.6 2.6 1.3 1.7 1.2 1.7 1.8 0.6 6.8-0.7 3-1.6 7.6-2 10.3l-0.7 4.9 2-2.4c1.1-1.3 3.9-6.6 6.3-11.7l4.4-9.3 2.6 1.8c2.6 1.7 2.6 1.9 2.2 10.4l-0.5 8.8 2.2-1.5c1.3-0.8 2.6-2.2 2.9-3 0.3-0.8 1.4-1.4 2.5-1.4 1.6 0 2.2-1.5 3.9-11.3 1.1-6.1 2.4-13.6 2.7-16.5 0.7-5.4 1.3-5.9 4.5-4.2z"/>
		<path id="Capa 1" class="s1" d="m58.5 240.5c-0.9-0.9-0.7-4.4 0.9-7.3 1.5-2.6 2.7-3.8 4.4-4.8 0.7-0.4 1.4-0.2 1.2 0.6-0.7 2.8-1.2 3.9-2.8 7-1.3 2.5-2.9 5.4-3.7 4.5z"/>
		<path id="Capa 1 copy" class="s1" d="m100.5 238.5c-0.9-0.9-0.7-4.4 0.9-7.3 1.5-2.6 2.7-3.8 4.4-4.8 0.7-0.4 1.4-0.2 1.2 0.6-0.7 2.8-1.2 3.9-2.8 7-1.3 2.5-2.9 5.4-3.7 4.5z"/>
		<path id="Capa 1 copy 2" class="s1" d="m136.7 276.8c-0.9-0.9 0.3-6.5 2-9.5 1.4-2.5 4.6-7.5 6.6-9.6 0.6-0.6 2.8-2.5 2.8-1.6-0.4 4.3-4.1 11.8-5.7 15-1.3 2.4-4.9 6.6-5.7 5.7z"/>
		<path id="Capa 1 copy 4" class="s1" d="m215.7 272.8c-0.9-0.9 0.3-6.5 2-9.5 1.4-2.5 4.6-7.5 6.6-9.6 0.6-0.6 2.8-2.5 2.8-1.6-0.4 4.3-4.1 11.8-5.7 15-1.3 2.4-4.9 6.6-5.7 5.7z"/>
		<path id="Capa 1 copy 3" class="s1" d="m165.1 250c-0.9-1 0.8-9.7 1.9-12.9 0.9-2.7 4.2-9.7 5.9-10.7 0.7-0.5 0.2 2.5 0.1 3.4-0.6 2.9-3.8 13.1-4.7 16.5-0.7 2.5-2.4 4.5-3.2 3.7z"/>
		<path id="Forma 1" class="s0" d="m242 246c1.4-0.6 2.9-0.2 4 1 1.3 1.5 1.1 3.9 0 5-1.4 1.4-5.2 0.7-6-1-0.7-1.5 0.1-4.2 2-5z"/>
		<path id="Forma 2" class="s0" d="m271 262"/>
	</g>
</svg>