<svg version="1.2" xmlns="http://www.w3.org/2000/svg" viewBox="0 0 512 512" width="512" height="512">
	<title>usuario-svg</title>
	<style>
		.s0 { fill: #ffffff } 
	</style>
	<g id="Layer">
		<path id="Layer" fill-rule="evenodd" class="s0" d="m274.3 1.5c25.1 4.4 47.8 16.3 66 34.8 22.8 23.1 33.9 48.8 35.4 81.5 1.6 36.8-9.9 66.6-36.1 92.8-11.7 11.6-23 19.9-35 25.3-35.9 16.2-79.6 14.6-112.4-4.2-33.3-19.1-55.4-50.3-61.8-87.1-2.2-12.6-1.5-37.6 1.4-50.1 2.8-11.8 7.8-24.6 13.4-33.8 10.8-17.8 27.3-34.2 45.4-45 11.7-7 26.9-12.2 44.4-15 6.6-1.1 31.4-0.6 39.3 0.8zm-41.2 31c-10.7 2.4-18.3 5.3-26.1 9.9-21.1 12.5-36.8 32-43.6 54.1-2.6 8.3-2.8 10.3-2.8 26.5-0.1 15.3 0.2 18.5 2.2 25.3 4.7 16.3 13.1 29.6 26.9 42.7 17.7 16.8 38.1 24.9 62.9 25 25 0 48.4-9.9 66-28.2 11.8-12.2 18.5-23.4 23.1-38.5 2.4-8 2.6-10.3 2.7-25.8 0-15.7-0.2-17.7-2.7-25.8-4.9-15.8-11.5-26.9-23.4-39-11.9-12.1-25.5-20.4-40.5-24.8-9.6-2.8-35-3.6-44.7-1.4z"/>
		<path id="Layer" fill-rule="evenodd" class="s0" d="m151.7 247.1c7.4-0.1 8.7 0.2 14.5 3.2 3.5 1.8 11.6 6.8 18.2 11.1 18 11.7 29.9 17.2 47.6 21.8 12.4 3.2 34.8 3.2 47.3-0.1 16.6-4.3 29.1-10 47.1-21.5 23.3-15 23.5-15 37.1-14.3 63.3 3.5 100.5 58.7 105.5 156.7 1.1 21.9 0.2 36.1-3 48-5.3 19-17.6 35.8-34.3 46.4-7.2 4.6-12.9 7.1-23.7 10.5l-8.5 2.6-139.9 0.3c-152.9 0.3-147.4 0.5-163.9-5.5-11.9-4.2-20.4-9.8-30.2-19.7-6.9-6.9-10.1-11-13.2-17.1-8.4-16.6-10.3-26-10.3-52.4 0-62.5 15.7-113.6 43.7-142.4 14.7-15.1 32.2-23.7 55.3-27.1 1.4-0.2 6.2-0.4 10.7-0.5zm-12.2 32.4c-13.4 2.9-23.9 8.8-32.3 18-21.8 23.8-34.1 67.2-34.2 119.9 0 19.4 1 25.6 5.8 35.6 3.8 7.8 14.1 17.9 22.3 21.8 14.9 7.1 5.5 6.7 153.9 6.7 125.3 0 134-0.1 141.2-1.8 24-5.6 39.1-22.4 41.8-46.6 1.3-11.7-0.5-44.2-3.5-61.6-10-58.7-32.4-88.9-69.3-93.1l-6.1-0.6-14.8 9.4c-17.7 11.4-27.5 16.5-41.2 21.2-30.1 10.5-58.7 11.1-88.9 2-15.5-4.7-28.8-11.2-46.7-22.7-16.4-10.6-16.7-10.7-28-8.2z"/>
	</g>
</svg>