<?xml version="1.0" standalone="no"?>
<!DOCTYPE svg PUBLIC "-//W3C//DTD SVG 20010904//EN"
 "http://www.w3.org/TR/2001/REC-SVG-20010904/DTD/svg10.dtd">
<svg version="1.0" xmlns="http://www.w3.org/2000/svg"
 width="354.000000pt" height="354.000000pt" viewBox="0 0 354.000000 354.000000"
 preserveAspectRatio="xMidYMid meet">
<metadata>
Created by potrace 1.16, written by Peter Selinger 2001-2019
</metadata>
<g transform="translate(0.000000,354.000000) scale(0.100000,-0.100000)"
fill="#000000" stroke="none">
<path d="M1710 3446 c-19 -7 -71 -36 -115 -64 -110 -69 -142 -76 -260 -57
-136 22 -195 20 -235 -8 -19 -12 -68 -67 -109 -122 -42 -54 -90 -107 -107
-117 -17 -10 -79 -30 -138 -44 -158 -39 -198 -74 -231 -201 -50 -198 -54 -203
-200 -308 -121 -87 -133 -127 -99 -321 16 -86 16 -96 0 -143 -9 -28 -38 -84
-65 -125 -54 -83 -76 -149 -67 -199 3 -18 33 -76 65 -128 79 -125 86 -156 66
-269 -22 -131 -20 -200 8 -240 12 -19 67 -68 122 -109 54 -42 107 -90 117
-107 10 -17 30 -79 44 -138 39 -158 74 -198 201 -231 153 -39 174 -47 209 -77
20 -17 54 -59 76 -92 101 -151 136 -165 332 -130 122 21 162 12 282 -66 81
-53 148 -75 197 -66 18 3 76 33 128 65 126 79 154 86 274 66 136 -22 195 -20
235 8 19 12 68 67 109 122 42 54 90 107 107 117 17 10 79 30 138 44 159 39
197 73 230 200 45 174 46 177 95 224 25 25 77 66 114 92 111 78 123 119 91
302 -8 49 -12 106 -9 126 4 21 35 86 71 146 35 59 67 123 70 142 9 49 -10 104
-74 210 -66 111 -72 148 -48 297 8 55 13 117 10 137 -9 50 -58 105 -154 173
-95 67 -125 112 -152 228 -43 188 -59 204 -257 256 -61 16 -124 39 -140 50
-16 12 -51 52 -77 89 -58 83 -101 129 -136 148 -36 19 -118 18 -214 -2 -101
-21 -154 -10 -255 53 -135 84 -176 96 -249 69z m221 -919 c31 -14 78 -46 105
-72 l49 -47 -22 -15 c-15 -10 -23 -26 -23 -44 0 -27 22 -59 40 -59 5 0 7 -7 4
-15 -8 -19 22 -65 41 -65 33 0 7 -121 -41 -193 l-27 -41 -13 26 c-7 14 -24 28
-38 32 l-25 6 26 45 c70 126 21 279 -112 348 -63 32 -155 29 -224 -8 -170 -93
-178 -310 -14 -433 41 -31 43 -35 29 -51 -9 -10 -16 -27 -16 -39 0 -31 -17
-28 -78 13 -172 116 -206 366 -71 519 105 119 268 156 410 93z m-641 -137 c0
-47 3 -60 15 -60 11 0 15 13 15 54 0 30 5 58 10 61 6 4 10 -17 10 -54 0 -54 2
-61 20 -61 18 0 20 7 20 61 0 37 4 58 10 54 6 -3 10 -42 10 -86 0 -65 -3 -82
-20 -99 -17 -17 -20 -36 -22 -167 -3 -140 -4 -148 -23 -148 -19 0 -20 8 -23
149 -2 136 -4 151 -22 163 -17 12 -20 26 -20 104 0 53 4 89 10 89 6 0 10 -27
10 -60z m969 46 c8 -9 11 -85 9 -252 -3 -231 -4 -239 -23 -239 -18 0 -20 8
-23 98 -2 77 -6 97 -17 97 -13 0 -15 24 -15 143 0 147 5 167 41 167 9 0 22 -6
28 -14z m-406 -10 c62 -19 102 -49 132 -101 35 -58 42 -129 20 -194 -19 -59
-29 -68 -51 -47 -18 19 -65 21 -82 4 -9 -9 -12 -9 -12 0 0 18 -37 33 -66 26
-14 -4 -30 -17 -36 -29 -6 -13 -22 -25 -38 -29 -17 -3 -31 -14 -35 -26 -9 -27
-16 -26 -55 13 -120 117 -77 324 81 380 56 20 85 20 142 3z m-220 -864 l-1
-104 22 21 c22 20 56 28 69 14 4 -3 -9 -26 -29 -50 -42 -51 -40 -55 46 -114
28 -19 50 -37 50 -41 0 -4 -9 -10 -21 -13 -14 -5 -38 5 -82 34 -60 39 -62 40
-65 18 -8 -66 -23 -84 -58 -70 -14 5 -16 18 -11 86 l7 79 -27 -26 c-18 -19
-36 -26 -63 -26 -54 0 -75 27 -75 100 0 48 4 63 25 85 19 20 32 25 60 23 24
-2 36 -9 38 -20 2 -13 -3 -18 -17 -18 -25 0 -41 -28 -41 -72 0 -55 14 -65 39
-29 21 30 61 128 61 151 0 6 7 27 15 46 11 28 19 35 37 32 22 -3 23 -6 21
-106z m324 71 c76 -36 97 -134 43 -197 -18 -20 -44 -37 -63 -41 -69 -14 -67
-11 -67 -80 0 -68 -13 -88 -51 -78 -23 6 -34 117 -24 254 6 97 6 101 -15 106
-11 3 -19 11 -17 17 12 36 133 48 194 19z m-981 -12 c37 -23 50 -57 26 -70
-22 -11 -43 -3 -65 26 -23 29 -34 23 -59 -33 -31 -72 -23 -234 12 -234 6 0 28
18 49 41 24 26 44 40 56 38 32 -7 27 -26 -18 -73 -40 -42 -48 -46 -90 -46 -53
0 -79 19 -103 76 -37 90 9 256 80 284 35 15 79 11 112 -9z m355 -131 c17 -10
19 -22 19 -121 0 -92 -3 -111 -16 -116 -10 -4 -22 0 -29 10 -7 10 -16 13 -26
6 -22 -14 -62 -11 -87 7 -51 35 -5 104 69 104 45 0 53 10 44 56 -6 35 -7 35
-30 20 -28 -18 -55 -21 -55 -6 0 12 59 50 78 50 7 0 22 -5 33 -10z m1420 0
c17 -10 19 -22 19 -121 0 -92 -3 -111 -16 -116 -10 -4 -22 0 -29 10 -7 10 -16
13 -26 6 -22 -14 -62 -11 -87 7 -53 37 -5 104 74 104 41 0 44 2 43 28 0 15 -4
35 -7 45 -7 16 -9 16 -27 3 -23 -18 -55 -21 -55 -6 0 12 59 50 78 50 7 0 22
-5 33 -10z m-507 -10 c14 -5 26 -14 26 -20 0 -6 -18 -39 -40 -74 -22 -35 -40
-66 -40 -68 0 -3 30 -9 67 -13 36 -4 71 -9 77 -11 9 -3 88 110 104 148 2 4
-11 8 -30 8 -18 0 -40 4 -48 10 -22 14 13 24 82 25 86 0 90 -11 36 -98 l-46
-74 71 -9 c39 -5 72 -14 75 -21 3 -10 -52 -12 -237 -12 -209 0 -241 2 -241 15
0 8 18 42 40 74 58 85 59 90 19 90 -41 0 -72 16 -49 24 51 17 100 19 134 6z
m-1173 -35 c4 -17 7 -23 8 -14 0 9 10 24 21 34 27 25 62 13 79 -27 8 -18 16
-36 19 -40 9 -17 -33 -7 -54 13 l-23 21 -10 -38 c-5 -22 -13 -55 -16 -75 -8
-46 -20 -63 -37 -56 -16 6 -28 76 -28 165 0 45 3 53 17 50 10 -2 21 -16 24
-33z"/>
</g>
</svg>
